<svg xmlns="http://www.w3.org/2000/svg" xmlns:xlink="http://www.w3.org/1999/xlink" version="1.1" x="0px" y="0px" viewBox="0 0 100 125" style="enable-background:new 0 0 100 100;" xml:space="preserve">
    <path d="M83.3,14H61.7V9.9c0-2.7-2.2-4.9-4.9-4.9H43.2c-2.7,0-4.9,2.2-4.9,4.9V14H16.7c-2.2,0-3.9,1.8-3.9,3.9v7.8  c0,2.2,1.8,3.9,3.9,3.9h2v58.5c0,3.8,3,6.8,6.8,6.8h49.1c3.7,0,6.8-3.1,6.8-6.8V29.7h2c2.2,0,3.9-1.8,3.9-3.9V18  C87.2,15.8,85.4,14,83.3,14z M42.2,9.9c0-0.5,0.4-1,1-1h13.7c0.5,0,1,0.4,1,1V14H42.2V9.9z M77.4,88.2c0,1.6-1.3,2.9-2.9,2.9H25.5  c-1.6,0-2.9-1.3-2.9-2.9V29.7h54.8V88.2z M83.3,25.8H16.7V18h66.5V25.8z M33.4,83.3v-47c0-1.1,0.9-2,2-2c1.1,0,2,0.9,2,2v47  c0,1.1-0.9,2-2,2C34.2,85.2,33.4,84.3,33.4,83.3z M48,83.3v-47c0-1.1,0.9-2,2-2s2,0.9,2,2v47c0,1.1-0.9,2-2,2S48,84.3,48,83.3z   M62.7,83.3v-47c0-1.1,0.9-2,2-2c1.1,0,2,0.9,2,2v47c0,1.1-0.9,2-2,2C63.6,85.2,62.7,84.3,62.7,83.3z"/>
</svg>