<svg xmlns:dc="http://purl.org/dc/elements/1.1/" xmlns:cc="http://creativecommons.org/ns#" xmlns:rdf="http://www.w3.org/1999/02/22-rdf-syntax-ns#" xmlns:svg="http://www.w3.org/2000/svg" xmlns="http://www.w3.org/2000/svg" xmlns:sodipodi="http://sodipodi.sourceforge.net/DTD/sodipodi-0.dtd" xmlns:inkscape="http://www.inkscape.org/namespaces/inkscape" version="1.1" x="0px" y="0px" viewBox="0 0 100 125"><g transform="translate(0,-952.36218)">
    <path style="text-indent:0;text-transform:none;direction:ltr;block-progression:tb;baseline-shift:baseline;enable-background:accumulate;" d="m 17.859375,964.67793 c -6.242173,0 -11.28125,5.07501 -11.28125,11.3125 l 0,43.81247 c 0,6.2375 5.043764,11.2813 11.28125,11.2813 l 20.59375,0 7.15625,7.1562 c 2.406705,2.408 6.343378,2.4081 8.75,0 l 7.15625,-7.1562 20.5625,0 c 6.237402,0 11.34375,-5.0392 11.34375,-11.2813 l 0,-43.81247 c 0,-6.24217 -5.101661,-11.3125 -11.34375,-11.3125 l -64.21875,0 z m 0,2.59375 64.21875,0 c 4.841063,0 8.75,3.87758 8.75,8.71875 l 0,43.81247 c 0,4.8412 -3.90425,8.6875 -8.75,8.6875 l -21.09375,0 a 1.30013,1.30013 0 0 0 -0.9375,0.375 l -7.53125,7.5313 c -1.418582,1.4194 -3.643811,1.4194 -5.0625,0 l -7.53125,-7.5313 a 1.30013,1.30013 0 0 0 -0.9375,-0.375 l -21.125,0 c -4.845858,0 -8.6875,-3.8417 -8.6875,-8.6875 l 0,-43.81247 c 0,-4.84585 3.846329,-8.71875 8.6875,-8.71875 z m 3.59375,13.96875 a 1.304477,1.304477 0 1 0 0.28125,2.59375 l 56.53125,0 a 1.30013,1.30013 0 1 0 0,-2.59375 l -56.53125,0 a 1.30013,1.30013 0 0 0 -0.28125,0 z m 0.125,15.34375 a 1.30013,1.30013 0 0 0 0.15625,2.59372 l 56.53125,0 a 1.30013,1.30013 0 1 0 0,-2.59372 l -56.53125,0 a 1.30013,1.30013 0 0 0 -0.15625,0 z m 0.15625,15.34372 a 1.3125,1.3125 0 1 0 0,2.625 l 56.53125,0 a 1.3125,1.3125 0 0 0 0,-2.625 l -56.53125,0 z" /></g>
</svg>