<svg xmlns="http://www.w3.org/2000/svg" data-name="Layer 1" viewBox="0 0 100 125" x="0px" y="0px"><title>07</title>
    <path d="M15,72.77H33.1V88.23a3,3,0,0,0,5,2.23L57.76,72.77H85a10,10,0,0,0,10-10v-44a10,10,0,0,0-10-10H15a10,10,0,0,0-10,10v44A10,10,0,0,0,15,72.77Zm-6-54a6,6,0,0,1,6-6H85a6,6,0,0,1,6,6v44a6,6,0,0,1-6,6H57a2,2,0,0,0-1.34.51L37.1,86V70.77a2,2,0,0,0-2-2H15a6,6,0,0,1-6-6Z"/>
    <path d="M20,41.22H80a2,2,0,0,0,0-4H20a2,2,0,0,0,0,4Z"/>
    <path d="M20,27.47H80a2,2,0,0,0,0-4H20a2,2,0,0,0,0,4Z"/>
    <path d="M20,55H60a2,2,0,0,0,0-4H20a2,2,0,0,0,0,4Z"/>
</svg>