<svg xmlns="http://www.w3.org/2000/svg" data-name="Layer 1" viewBox="0 0 100 125" x="0px" y="0px"><title>Ui_Thin_Icon_Left</title><path d="M50,89.38A39.38,39.38,0,1,1,89.38,50,39.42,39.42,0,0,1,50,89.38Zm0-74.75A35.38,35.38,0,1,0,85.38,50,35.4,35.4,0,0,0,50,14.63Zm5.34,50a2,2,0,0,0,0-2.83L43.56,50,55.34,38.23a2,2,0,0,0-2.83-2.83L39.32,48.59a2,2,0,0,0,0,2.82L52.51,64.6a2,2,0,0,0,1.41.59A2,2,0,0,0,55.34,64.6Z"/><text x="0" y="115" fill="#000000" font-size="5px" font-weight="bold" font-family="'Helvetica Neue', Helvetica, Arial-Unicode, Arial, Sans-serif">Created by Mani Singh</text><text x="0" y="120" fill="#000000" font-size="5px" font-weight="bold" font-family="'Helvetica Neue', Helvetica, Arial-Unicode, Arial, Sans-serif">from the Noun Project</text></svg>