<svg xmlns="http://www.w3.org/2000/svg" data-name="Layer 1" viewBox="0 0 100 125" x="0px" y="0px"><title>07</title>
    <path d="M90,26.79a10,10,0,0,0-10-10H20a10,10,0,0,0-10,10v35a10,10,0,0,0,10,10H54.21L66.4,82.24a4,4,0,0,0,2.59,1,4,4,0,0,0,1.68-.37A4,4,0,0,0,73,79.2V71.79h7a10,10,0,0,0,10-10Zm-4,35a6,6,0,0,1-6,6H71a2,2,0,0,0-2,2V79.2L56.25,68.28a2,2,0,0,0-1.3-.48H20a6,6,0,0,1-6-6v-35a6,6,0,0,1,6-6H80a6,6,0,0,1,6,6Z"/><rect x="28.06" y="34.52" width="43.87" height="4"/><rect x="33.73" y="48.92" width="32.53" height="4"/>
</svg>