<svg xmlns="http://www.w3.org/2000/svg" xmlns:xlink="http://www.w3.org/1999/xlink" version="1.1" x="0px" y="0px" viewBox="0 0 512 640" style="enable-background:new 0 0 512 512;" xml:space="preserve"><g>
    <path d="M67.7,295.9l152.6,143.9c10,9.4,22.8,14.1,35.7,14.1c12.8,0,25.7-4.7,35.7-14.1l152.7-143.9   c0.1-0.1,0.2-0.2,0.3-0.2c26.2-26.2,40.6-61.2,40.6-98.5s-14.4-72.3-40.6-98.5c-25.8-25.8-61.2-38.4-99.5-35.3   c-32,2.6-63.8,16.2-89.1,37.7C223.9,72.5,193.7,58,165.9,58c-37.3,0-72.3,14.4-98.5,40.6c-26.2,26.2-40.7,61.2-40.7,98.6   c0,37.3,14.4,72.3,40.7,98.5C67.5,295.8,67.6,295.8,67.7,295.9z M84.4,115.6C106.1,93.9,135,82,165.9,82   c23.4,0,51.7,15.2,81.8,44.1c4.7,4.5,12.1,4.4,16.7-0.1c22.4-22.1,52.5-36.2,82.6-38.7c31.2-2.5,59.8,7.5,80.6,28.3   c21.7,21.7,33.6,50.6,33.6,81.6c0,30.9-11.9,59.8-33.5,81.4L275.2,422.4c-10.8,10.2-27.6,10.2-38.4,0L84.3,278.6   c-21.6-21.6-33.5-50.6-33.5-81.4C50.7,166.3,62.7,137.3,84.4,115.6z"/></g>
</svg>